<svg xmlns="http://www.w3.org/2000/svg" xmlns:xlink="http://www.w3.org/1999/xlink" width="488" height="480" viewBox="0 0 488 480">
  <defs>
    <clipPath id="clip-_011">
      <rect width="488" height="480"/>
    </clipPath>
  </defs>
  <g id="_011" data-name="011" clip-path="url(#clip-_011)">
    <g id="_01" data-name="01" transform="translate(0 -3.72)">
      <path id="Caminho_57" data-name="Caminho 57" d="M408,166.386c0,41.189-16.619,97.556-43.854,145.762C347.75,341.169,312,394.16,312,427.439H240V11.72c92.784,0,168,67,168,154.666Z" fill="#dbe6fd"/>
      <path id="Caminho_58" data-name="Caminho 58" d="M72,166.667c0,41.189,16.619,97.556,43.854,145.762C132.25,341.45,168,394.441,168,427.72h72V12C147.216,12,72,79,72,166.667Z" fill="#ffe07d"/>
      <g id="Grupo_18" data-name="Grupo 18">
        <path id="Caminho_59" data-name="Caminho 59" d="M324.555,391.2l-14.875-5.891a135.466,135.466,0,0,1,7.473-15.625l14.008,7.734a119.756,119.756,0,0,0-6.606,13.782Z" fill="#96aed9"/>
        <path id="Caminho_60" data-name="Caminho 60" d="M339.3,363.947l-13.43-8.688c3-4.641,6.137-9.234,9.281-13.75l13.133,9.141c-3.043,4.375-6.078,8.812-8.984,13.3Z" fill="#96aed9"/>
        <path id="Caminho_61" data-name="Caminho 61" d="M357.629,337.275l-13.141-9.125c3.152-4.547,6.16-8.977,8.859-13.258l13.539,8.516C364.07,327.892,360.93,332.525,357.629,337.275Z" fill="#96aed9"/>
        <path id="Caminho_62" data-name="Caminho 62" d="M375.277,308.782l-14.109-7.547q3.75-7.02,7.191-14.227L382.8,293.9Q379.2,301.423,375.277,308.782Z" fill="#96aed9"/>
        <path id="Caminho_63" data-name="Caminho 63" d="M389.648,278.728l-14.727-6.266c2.094-4.914,4.074-9.867,5.934-14.812l14.977,5.625Q392.926,271.021,389.648,278.728Z" fill="#96aed9"/>
        <path id="Caminho_64" data-name="Caminho 64" d="M415.324,182.087l-15.945-1.344c.414-4.875.621-9.617.621-14.078l-.008-1.469,16-.125.008,1.594C416,171.579,415.773,176.767,415.324,182.087Z" fill="#96aed9"/>
        <path id="Caminho_65" data-name="Caminho 65" d="M399,149.822a138.328,138.328,0,0,0-2.664-15.164l15.578-3.641a155.042,155.042,0,0,1,2.977,16.914Z" fill="#96aed9"/>
        <path id="Caminho_66" data-name="Caminho 66" d="M392,119.892a139.775,139.775,0,0,0-5.969-14.2l14.383-7a153.94,153.94,0,0,1,6.656,15.844Z" fill="#96aed9"/>
        <path id="Caminho_67" data-name="Caminho 67" d="M378.531,92.251a145.592,145.592,0,0,0-8.945-12.578l12.531-9.953A161.627,161.627,0,0,1,392.055,83.7Z" fill="#96aed9"/>
        <path id="Caminho_68" data-name="Caminho 68" d="M359.348,68.1a151.453,151.453,0,0,0-11.4-10.461l10.2-12.328a167.354,167.354,0,0,1,12.613,11.57Z" fill="#96aed9"/>
        <path id="Caminho_69" data-name="Caminho 69" d="M335.52,48.345c-4.25-2.859-8.723-5.563-13.293-8.031l7.609-14.078c5.023,2.719,9.938,5.688,14.613,8.828Z" fill="#96aed9"/>
        <path id="Caminho_70" data-name="Caminho 70" d="M308.211,33.6c-4.691-1.992-9.594-3.805-14.578-5.383l4.844-15.25c5.457,1.734,10.84,3.719,15.992,5.914Z" fill="#96aed9"/>
        <path id="Caminho_71" data-name="Caminho 71" d="M278.586,24.173c-5.023-1.117-10.188-2.016-15.348-2.68l2.047-15.875c5.633.734,11.273,1.719,16.762,2.93Z" fill="#96aed9"/>
      </g>
      <path id="Caminho_72" data-name="Caminho 72" d="M305.951,451.72h-131.9a16,16,0,0,1-16-16v-.561a15.08,15.08,0,0,1,15.254-14.9q.373,0,.746.027h131.9a15.08,15.08,0,0,1,15.973,14.131c.015.249.024.5.027.746v.561A16,16,0,0,1,305.951,451.72Z" fill="#65a9fb"/>
      <path id="Caminho_73" data-name="Caminho 73" d="M172,451.72H308a16,16,0,0,1,16,16v.56a16,16,0,0,1-16,16H172a16,16,0,0,1-16-16v-.56A16,16,0,0,1,172,451.72Z" fill="#3e8bfc"/>
      <path id="Caminho_74" data-name="Caminho 74" d="M240,131.72v-48a112.55,112.55,0,0,0-13.643.913l-3.51,16.7a95.1,95.1,0,0,0-15.225,4.1l-11.465-12.8a111.713,111.713,0,0,0-23.489,13.731l5.3,16.146a96.574,96.574,0,0,0-11.169,11.17l-16.147-5.3a111.681,111.681,0,0,0-13.732,23.49l12.8,11.466a95.107,95.107,0,0,0-4.1,15.226l-16.7,3.511v27.286l16.7,3.51a94.963,94.963,0,0,0,4.1,15.225l-12.8,11.465a111.713,111.713,0,0,0,13.731,23.489l16.146-5.3a96.575,96.575,0,0,0,11.17,11.169l-5.3,16.147A111.667,111.667,0,0,0,196.157,298.8L207.623,286a95.112,95.112,0,0,0,15.226,4.1l3.511,16.7A112.752,112.752,0,0,0,240,307.72v-48a64,64,0,0,1,0-128Z" fill="#e27f84"/>
      <path id="Caminho_75" data-name="Caminho 75" d="M376,195.72a23.962,23.962,0,0,0-22.526,16H312v-32h40a8,8,0,0,0,8-8V138.246a24,24,0,1,0-16,0v25.475H312v-16H296V98.246a24,24,0,1,0-16,0v49.475H240v96h24v32a8,8,0,0,0,8,8h24V293.2a24,24,0,1,0,16,0V275.72a8,8,0,0,0-8-8H280v-24h32v-16h41.475a23.958,23.958,0,1,0,22.525-32Z" fill="#aecafc"/>
      <g id="Grupo_19" data-name="Grupo 19">
        <path id="Caminho_76" data-name="Caminho 76" d="M16,435.72H32v16H16Z" fill="#ffe07d"/>
        <path id="Caminho_77" data-name="Caminho 77" d="M16,467.72H32v16H16Z" fill="#ffe07d"/>
        <path id="Caminho_78" data-name="Caminho 78" d="M32,451.72H48v16H32Z" fill="#ffe07d"/>
        <path id="Caminho_79" data-name="Caminho 79" d="M0,451.72H16v16H0Z" fill="#ffe07d"/>
        <path id="Caminho_80" data-name="Caminho 80" d="M456,3.72h16v16H456Z" fill="#ffe07d"/>
        <path id="Caminho_81" data-name="Caminho 81" d="M456,35.72h16v16H456Z" fill="#ffe07d"/>
        <path id="Caminho_82" data-name="Caminho 82" d="M472,19.72h16v16H472Z" fill="#ffe07d"/>
        <path id="Caminho_83" data-name="Caminho 83" d="M440,19.72h16v16H440Z" fill="#ffe07d"/>
      </g>
    </g>
  </g>
</svg>
