<svg id="Capa_1" enable-background="new 0 0 498.147 498.147" height="512" viewBox="0 0 498.147 498.147" width="512" xmlns="http://www.w3.org/2000/svg"><g><g><path d="m441.406 45.013c8.527 0 15.44 6.913 15.44 15.44v422.255c0 8.527-6.913 15.44-15.44 15.44h-384.665c-8.527 0-15.44-6.913-15.44-15.44v-422.255c0-8.527 6.913-15.44 15.44-15.44z" fill="#b5adb6"/><path d="m133.215 452.92c-8.527 0-15.44-6.913-15.44-15.44v-392.467h-61.034c-8.527 0-15.44 6.913-15.44 15.44v422.255c0 8.527 6.913 15.44 15.44 15.44h384.665c8.527 0 15.44-6.913 15.44-15.44v-29.788z" fill="#a79ba7"/><path d="m122.721 45.013v46.254c0 21.202 17.25 38.452 38.452 38.452h175.801c21.202 0 38.452-17.249 38.452-38.451v-46.255z" fill="#a79ba7"/><path d="m426.845 82.999v377.163c0 4.41-3.575 7.986-7.986 7.986h-339.571c-4.41 0-7.986-3.575-7.986-7.986v-377.163c0-4.41 3.575-7.986 7.986-7.986h339.572c4.41 0 7.985 3.575 7.985 7.986z" fill="#efedef"/><path d="m122.721 75.013v16.254c0 21.202 17.25 38.452 38.452 38.452h175.801c21.202 0 38.452-17.249 38.452-38.451v-16.255z" fill="#e5e1e5"/><path d="m149.455 452.92c-17.496 0-31.679-14.183-31.679-31.679v-346.228h-38.488c-4.41 0-7.986 3.575-7.986 7.986v377.163c0 4.41 3.575 7.986 7.986 7.986h339.572c4.41 0 7.986-3.575 7.986-7.986v-7.242z" fill="#e5e1e5"/><g fill="#b5adb6"><path d="m164.63 317.188c-4.004-1.064-8.111 1.313-9.179 5.315-5.056 18.97-7.619 38.544-7.619 58.18v3.326l-1.314 28.169c-.192 4.138 3.005 7.648 7.143 7.841.119.006.237.008.355.008 3.981 0 7.299-3.132 7.486-7.15l1.322-28.344c.005-.117.008-.233.008-.35v-3.501c0-18.332 2.394-36.606 7.113-54.316 1.067-4.002-1.313-8.112-5.315-9.178z"/><path d="m192.535 258.516c-3.51-2.195-8.139-1.129-10.335 2.383-6.139 9.818-11.559 20.183-16.111 30.807-1.632 3.807.132 8.216 3.939 9.848.964.413 1.965.608 2.95.608 2.91 0 5.679-1.704 6.897-4.548 4.25-9.918 9.312-19.595 15.043-28.763 2.197-3.512 1.129-8.14-2.383-10.335z"/><path d="m228.495 207.628c-9.702 8.146-18.782 17.18-26.989 26.854-2.68 3.158-2.292 7.891.866 10.571 1.41 1.197 3.134 1.781 4.849 1.781 2.126 0 4.239-.899 5.723-2.648 7.663-9.031 16.14-17.466 25.196-25.069 3.173-2.664 3.585-7.395.922-10.567-2.664-3.172-7.396-3.585-10.567-.922z"/><path d="m299.364 164.68-22.386-5.276c-4.031-.952-8.07 1.547-9.021 5.579-.95 4.032 1.548 8.07 5.579 9.021l5.233 1.233-11.815 6.34c-3.951 2.12-7.958 4.433-11.911 6.874-3.524 2.176-4.617 6.797-2.441 10.322 1.419 2.296 3.875 3.561 6.389 3.561 1.345 0 2.706-.361 3.934-1.12 3.695-2.282 7.438-4.441 11.122-6.418l12.037-6.459-1.495 6.344c-.95 4.032 1.548 8.07 5.579 9.02.579.137 1.157.202 1.728.202 3.399 0 6.479-2.328 7.293-5.781l5.755-24.42c.949-4.033-1.549-8.072-5.58-9.022z"/></g><path d="m364.04 167.469-11.148-11.001 11-11.147c2.91-2.948 2.879-7.697-.07-10.606-2.946-2.908-7.696-2.878-10.605.07l-11.001 11.148-11.148-11.001c-2.949-2.908-7.697-2.879-10.606.07-2.91 2.948-2.879 7.697.069 10.606l11.148 11.002-11.001 11.147c-2.91 2.948-2.879 7.697.07 10.606 1.461 1.442 3.364 2.162 5.268 2.162 1.936 0 3.871-.745 5.338-2.232l11.001-11.148 11.147 11.001c1.462 1.442 3.365 2.162 5.269 2.162 1.936 0 3.871-.745 5.338-2.232 2.911-2.949 2.88-7.698-.069-10.607z" fill="#fd8087"/><path d="m284.908 293.952-6.036-5.956 5.956-6.035c2.91-2.948 2.879-7.697-.069-10.606-2.949-2.909-7.697-2.878-10.606.07l-5.956 6.035-6.035-5.956c-2.948-2.909-7.697-2.878-10.606.07-2.91 2.948-2.879 7.697.069 10.606l6.036 5.956-5.956 6.035c-2.91 2.948-2.879 7.697.069 10.606 1.462 1.442 3.365 2.162 5.269 2.162 1.936 0 3.871-.745 5.338-2.232l5.956-6.035 6.035 5.956c1.462 1.442 3.365 2.162 5.269 2.162 1.936 0 3.871-.745 5.338-2.232 2.908-2.948 2.877-7.696-.071-10.606z" fill="#99e6fc"/><circle cx="155.332" cy="411.208" fill="#fd8087" r="25.438"/><circle cx="137.26" cy="179.153" fill="#86e8d0" r="22.614"/><g><path d="m342.287 402.378c-4.143 0-7.5-3.358-7.5-7.5v-43.438c0-4.142 3.357-7.5 7.5-7.5s7.5 3.358 7.5 7.5v43.438c0 4.142-3.358 7.5-7.5 7.5z" fill="#b5adb6"/></g></g><path d="m336.974 18.26h-53.002c-2.321 0-4.502-1.137-5.802-3.06-6.201-9.17-16.693-15.2-28.596-15.2-11.903 0-22.395 6.03-28.596 15.2-1.3 1.923-3.481 3.06-5.802 3.06h-54.002c-10.191 0-18.452 8.261-18.452 18.452v54.555c0 10.191 8.261 18.452 18.452 18.452h175.802c10.191 0 18.452-8.261 18.452-18.452v-54.555c-.002-10.191-8.263-18.452-18.454-18.452z" fill="#99e6fc"/><path d="m195.27 89.444c-12.873 0-23.309-10.436-23.309-23.309v-47.875h-10.788c-10.191 0-18.452 8.261-18.452 18.452v54.555c0 10.191 8.261 18.452 18.452 18.452h175.802c10.191 0 18.452-8.261 18.452-18.452v-1.824h-160.157z" fill="#62dbfb"/><circle cx="249.074" cy="60.248" fill="#f9f7f8" r="18.494"/><circle cx="342.286" cy="351.439" fill="#86e8d0" r="20.786"/></g></svg>