<svg id="Capa_1" enable-background="new 0 0 512 512" height="512" viewBox="0 0 512 512" width="512" xmlns="http://www.w3.org/2000/svg"><g><path d="m240.669 159.185c3.171 3.667.783 9.426-4.051 9.775-14.901 1.075-29.498 7.308-40.896 18.706-11.393 11.393-17.634 25.991-18.712 40.896-.35 4.838-6.111 7.223-9.778 4.049-11.295-9.777-26.031-15.685-42.149-15.685-16.11 0-30.846 5.911-42.149 15.693-3.667 3.174-9.428.787-9.777-4.05-1.076-14.907-7.317-29.508-18.712-40.903-11.392-11.392-25.989-17.633-40.886-18.711-4.837-.35-7.223-6.111-4.049-9.778 9.781-11.298 15.691-26.028 15.691-42.149 0-16.116-5.915-30.85-15.701-42.145-3.178-3.668-.792-9.432 4.048-9.781 14.905-1.076 29.507-7.312 40.896-18.713 11.402-11.39 17.637-25.991 18.713-40.896.349-4.84 6.113-7.226 9.781-4.048 11.295 9.786 26.029 15.701 42.144 15.701 16.123 0 30.856-5.912 42.144-15.693 3.668-3.178 9.432-.793 9.782 4.047 1.078 14.903 7.313 29.501 18.713 40.889 11.395 11.395 25.996 17.636 40.903 18.712 4.837.349 7.224 6.111 4.05 9.778-9.782 11.302-15.693 26.039-15.693 42.149.001 16.114 5.915 30.854 15.688 42.157z" fill="#e9a52d"/><circle cx="125.085" cy="117.029" fill="#f1cd88" r="57.129"/><path d="m446.174 263.946c0-96.134-79.25-173.759-175.983-171.106-93.045 2.552-166.374 78.052-166.361 171.131.011 80.147 55.11 147.414 129.491 166.026v61.163c0 11.51 9.331 20.84 20.84 20.84 11.51 0 20.84-9.331 20.84-20.84v-36.519c0-10.493 7.869-19.382 18.302-20.494.14-.015.28-.03.419-.045 12.245-1.336 22.959 8.175 22.959 20.492v9.304c0 11.51 9.331 20.84 20.84 20.84 11.51 0 20.84-9.331 20.84-20.84v-50.429c52.387-29.268 87.813-85.254 87.813-149.523z" fill="#9ec8fc"/><path d="m270.191 92.839c-3.352.092-6.676.29-9.974.568 87.659 7.451 156.486 80.951 156.486 170.538 0 61.15-32.071 114.801-80.305 145.074-4.681 2.938-7.506 8.089-7.506 13.615v41.262c0 5.755-2.333 10.965-6.104 14.736 3.811 3.811 9.091 6.153 14.917 6.103 11.527-.098 20.659-9.848 20.659-21.375v-49.894c52.384-29.268 87.811-85.254 87.811-149.523-.001-96.132-79.251-173.756-175.984-171.104z" fill="#80b6fc"/><path d="m306.147 253.765-3.502 23.509c-1.356 9.103 3.796 17.925 12.389 21.218l49.314 18.896c12.978 4.973 23.258 15.186 28.315 28.132l11.854 30.345c25.955-30.009 41.657-69.13 41.657-111.921 0-12.952-1.449-25.564-4.174-37.692l-118.236 10.86c-9.008.829-16.284 7.706-17.617 16.653z" fill="#6fbbc6"/><path d="m442 226.253-28.899 2.654c2.353 11.311 3.601 23.028 3.601 35.038 0 30.991-8.25 60.049-22.654 85.121l10.458 26.772c22.235-25.711 35.641-56.465 40.04-88.193l.004-.028c.484-3.499.968-8.171 1.211-11.7l.002-.027c1.115-16.187-.016-32.897-3.763-49.637z" fill="#61aab8"/><path d="m103.83 263.946c0 25.194 5.445 49.116 15.22 70.655l18.247-33.71c4.198-7.755 14.963-8.676 20.417-1.747l30.294 38.488c5.952 7.562 16.737 9.235 24.7 3.832 8.729-5.923 10.672-17.972 4.247-26.338l-29.565-38.495c-5.955-7.753-3.069-19.037 5.877-22.979l61.179-26.961c7.714-3.4 12.693-11.035 12.693-19.465v-38.43c0-7.586-4.04-14.597-10.602-18.402l-22.925-13.291c-14.731-8.541-30.34-15.252-46.481-20.073-49.898 29.909-83.301 84.508-83.301 146.916z" fill="#6fbbc6"/><path d="m485.885 185.139v-145.52c0-17.88-14.494-32.374-32.374-32.374h-44.714c-17.88 0-32.374 14.494-32.374 32.374v145.52c-12.182 13.9-19.186 32.446-17.91 52.609 2.382 37.633 33.716 67.459 71.419 68.081 40.694.672 74.013-32.237 74.013-72.78-.001-18.337-6.831-35.098-18.06-47.91z" fill="#ddebfd"/><path d="m485.885 185.139v-145.52c0-17.88-14.495-32.374-32.374-32.374h-23.783c17.88 0 32.374 14.494 32.374 32.374v145.52c11.23 12.813 18.059 29.574 18.059 47.909 0 36.096-26.417 66.116-60.927 71.8 3.494.583 7.065.92 10.697.98 40.694.672 74.013-32.236 74.013-72.78 0-18.336-6.83-35.097-18.059-47.909z" fill="#bed9fd"/><path d="m450.834 203.929v-148.437c0-7.288-5.908-13.197-13.197-13.197h-12.967c-7.288 0-13.197 5.908-13.197 13.197v148.437c-10.008 6.777-16.337 18.578-15.365 31.782 1.276 17.323 15.433 31.316 32.769 32.408 20.44 1.287 37.419-14.909 37.419-35.071.001-12.117-6.132-22.801-15.462-29.119z" fill="#d97b7b"/></g></svg>