<svg id="Capa_1" enable-background="new 0 0 497.499 497.499" height="512" viewBox="0 0 497.499 497.499" width="512" xmlns="http://www.w3.org/2000/svg"><g><path d="m458.524 426.919-379.64 34.61c-24.5 2.23-45.37-10.2-56.49-28.64-9.65-15.98-11.97-36.46-3-55.8l72.1-155.51c4.04-8.71 14.49-12.34 23.06-8.01l31.15 15.76c8.18 4.14 18.16 1.04 22.56-7.01l46.92-85.89c4.23-7.74 13.31-10.61 20.88-7.76 2.32.87 4.49 2.28 6.34 4.24l60.72 64.21c7.03 7.43 18.98 7.01 25.46-.9 3.41-4.16 8.27-6.22 13.12-6.22 5.22 0 10.43 2.39 13.8 7.09l127.69 175.36c15.71 21.57 1.91 52.05-24.67 54.47z" fill="#e1f1f3"/><path d="m236.064 128.669-25.55 138.087c-2.026 10.948-12.404 18.289-23.402 16.552l-19.419-3.066c-10.193-1.609-19.998 4.593-22.91 14.493l-32.409 110.183-89.98 27.97c-9.65-15.98-11.97-36.46-3-55.8l72.1-155.51c4.04-8.71 14.49-12.34 23.06-8.01l31.15 15.76c8.18 4.14 18.16 1.04 22.56-7.01l46.92-85.89c4.23-7.739 13.31-10.609 20.88-7.759z" fill="#b7cacc"/><path d="m493.751 432.009v65.49h-490v-35.49c49 0 49-30 98-30 49.01 0 49.01 30 98.01 30s49-30 98-30 49 30 97.99 30c49 0 49-30 98-30z" fill="#75b3da"/><path d="m3.748 346.857c48.999 0 48.999 30 97.998 30 48.998 0 48.998-30 97.996-30 49 0 49 30 97.999 30 49.002 0 49.002-30 98.004-30s49.002 30 98.004 30v55.156c-48.999 0-48.999 30-97.998 30-48.998 0-48.998-30-97.996-30-49 0-49 30-97.999 30-49.002 0-49.002-30-98.004-30s-49.002 30-98.004 30" fill="#85ccf8"/><g><path d="m329.354 299.924c0 .563.011 1.124.032 1.682.775 20.122 31.172 20.122 31.947 0 .021-.558.032-1.119.032-1.682 0-13.522-6.247-25.58-16.006-33.462-9.758 7.882-16.005 19.94-16.005 33.462z" fill="#85ccf8"/></g><g fill="#85ccf8"><path d="m243.748 101c-4.142 0-7.5-3.358-7.5-7.5 0-9.524 3.669-14.785 6.349-18.625 2.277-3.264 3.651-5.233 3.651-10.043s-1.374-6.779-3.651-10.043c-2.68-3.84-6.349-9.101-6.349-18.625s3.67-14.783 6.349-18.624c2.277-3.263 3.651-5.232 3.651-10.041 0-4.142 3.358-7.5 7.5-7.5s7.5 3.358 7.5 7.5c0 9.524-3.67 14.783-6.349 18.624-2.277 3.263-3.651 5.232-3.651 10.041 0 4.81 1.374 6.779 3.651 10.043 2.68 3.84 6.349 9.101 6.349 18.625s-3.669 14.785-6.349 18.625c-2.277 3.264-3.651 5.233-3.651 10.043 0 4.142-3.358 7.5-7.5 7.5z"/><path d="m299.749 101c-4.142 0-7.5-3.358-7.5-7.5 0-9.524 3.669-14.785 6.349-18.625 2.277-3.264 3.651-5.233 3.651-10.043s-1.374-6.779-3.651-10.043c-2.68-3.84-6.349-9.101-6.349-18.625s3.67-14.783 6.349-18.624c2.277-3.263 3.651-5.232 3.651-10.041 0-4.142 3.358-7.5 7.5-7.5s7.5 3.358 7.5 7.5c0 9.524-3.67 14.783-6.349 18.624-2.277 3.263-3.651 5.232-3.651 10.041 0 4.81 1.374 6.779 3.651 10.043 2.68 3.84 6.349 9.101 6.349 18.625s-3.669 14.785-6.349 18.625c-2.277 3.264-3.651 5.233-3.651 10.043 0 4.142-3.358 7.5-7.5 7.5z"/><path d="m187.747 101c-4.142 0-7.5-3.358-7.5-7.5 0-9.524 3.669-14.785 6.349-18.625 2.277-3.264 3.651-5.233 3.651-10.043s-1.374-6.779-3.651-10.043c-2.68-3.84-6.349-9.101-6.349-18.625s3.67-14.783 6.349-18.624c2.277-3.263 3.651-5.232 3.651-10.041 0-4.142 3.358-7.5 7.5-7.5s7.5 3.358 7.5 7.5c0 9.524-3.67 14.783-6.349 18.624-2.277 3.263-3.651 5.232-3.651 10.041 0 4.81 1.374 6.779 3.651 10.043 2.68 3.84 6.349 9.101 6.349 18.625s-3.669 14.785-6.349 18.625c-2.277 3.264-3.651 5.233-3.651 10.043 0 4.142-3.358 7.5-7.5 7.5z"/></g></g></svg>