<svg id="Layer_1_1_" enable-background="new 0 0 64 64" height="512" viewBox="0 0 64 64" width="512" xmlns="http://www.w3.org/2000/svg"><circle cx="23" cy="41" fill="#6389ba" r="20"/><path d="m29.025 37.5c0 1.381 1.119 2.5 2.5 2.5h11.425c-.086-1.732-.369-3.411-.868-5h-10.557c-1.38 0-2.5 1.119-2.5 2.5z" fill="#aeca8d"/><path d="m18 56h-.5c-1.381 0-2.5-1.119-2.5-2.5s1.119-2.5 2.5-2.5h.5 11.99c2.209 0 4-1.791 4-4-.243-1.696-1.701-3-3.465-3h-20.5c-1.71 0-3.086-1.431-2.996-3.161.085-1.623 1.542-2.839 3.166-2.839h2.83c1.215 0 2.176-1.083 1.973-2.336-.16-.983-1.084-1.664-2.08-1.664h-8.634c-.816 2.182-1.284 4.533-1.284 7 0 11.046 8.954 20 20 20 5.064 0 9.675-1.897 13.198-5z" fill="#aeca8d"/><path d="m27.95 11c-.172-1.191-.934-2.185-1.99-2.672-.334-2.997-2.874-5.328-5.96-5.328-2.846 0-5.224 1.983-5.84 4.642-.686-.442-1.51-.688-2.399-.635-2.15.128-3.761 2.051-3.761 4.205v1.788c0 1.304.838 2.401 2 2.814l13 .186h2c1.657 0 3-1.343 3-3v-2z" fill="#dedede"/><path d="m19.501 10h-6.772c-.379 0-.725.214-.894.553l-2.469 4.938c.198.129.407.242.634.323l7.264.104c-.042-.26.015-.539.205-.778l2.812-3.515c.525-.655.059-1.625-.78-1.625z" fill="#c7c7c7"/><ellipse cx="50" cy="21" fill="#dedede" rx="10" ry="4"/><ellipse cx="51" cy="26.5" fill="#dedede" rx="7" ry="2.5"/><path d="m56.067 29.14-7.059-.093c-1.854-.024-3.287 1.623-3.005 3.456l1.462 9.497 1.1-3.849c.563-1.972 2.064-3.539 4.009-4.188l4.224-1.408c.921-.307 1.418-1.302 1.111-2.223-.259-.779-1.024-1.274-1.842-1.192z" fill="#dedede"/><ellipse cx="46.5" cy="10.5" fill="#dedede" rx="15.5" ry="7.5"/><path d="m38.973 29c-3.649-4.85-9.436-8-15.973-8-.918 0-1.815.083-2.7.203-.178.567-.274 1.171-.274 1.797 0 3.314 2.686 6 6 6z" fill="#aeca8d"/><path d="m16.051 22.266 3.949-5.266h-5l4-5h-7l-4 8h5l-.95 4.275-1.05 4.725z" fill="#c57200"/><g fill="#bcd99b"><path d="m34.412 37.25h-1.892c-.414 0-.75-.336-.75-.75 0-.414.336-.75.75-.75h1.893c.414 0 .75.336.75.75-.001.414-.336.75-.751.75z"/><path d="m31.234 46.75h-5.893c-.414 0-.75-.336-.75-.75 0-.414.336-.75.75-.75h5.893c.414 0 .75.336.75.75 0 .414-.336.75-.75.75z"/><path d="m13.936 36.5h-.893c-.414 0-.75-.336-.75-.75 0-.414.336-.75.75-.75h.893c.414 0 .75.336.75.75 0 .414-.335.75-.75.75z"/><path d="m28.412 28.25h-1.892c-.414 0-.75-.336-.75-.75 0-.414.336-.75.75-.75h1.893c.414 0 .75.336.75.75-.001.414-.336.75-.751.75z"/><circle cx="36.543" cy="36.5" r=".679"/><circle cx="30.677" cy="27.571" r=".679"/><circle cx="23.003" cy="45.929" r=".679"/><circle cx="10.881" cy="35.821" r=".679"/></g><path d="m49.712 19.392c-.755 0-1.505-.022-2.24-.057-5.04-.235-10.312-.715-14.505-3.719-2.04-1.461-3.231-3.419-3.269-5.371-.023-1.195.375-2.951 2.404-4.526 2.499-1.94 5.81-2.673 8.717-3.208 7.461-1.374 15.927.073 19.274 3.293 1.437 1.382 1.439 2.636 1.189 3.444-1.005 3.244-7.703 4.448-7.771 4.459-4.184.696-8.767.399-14.016-.91-.757-.189-1.491-.398-2.157-.873-.892-.635-1.384-1.623-1.287-2.579.092-.908.674-1.717 1.684-2.339 1.474-.907 3.156-1.156 4.607-1.28 3.248-.279 6.505-.023 9.674.758 1.61.397 2.524 1.332 2.446 2.5-.037.542-.344 1.535-1.98 2.117-2.726.97-5.8.845-8.438-.345-.503-.227-.728-.819-.5-1.323.226-.502.815-.728 1.322-.5 2.172.979 4.702 1.082 6.946.285.467-.167.637-.34.659-.388-.039-.027-.332-.255-.934-.403-2.956-.728-5.988-.968-9.025-.707-1.217.104-2.612.303-3.729.99-.439.271-.717.584-.742.838-.023.232.164.54.457.748.382.272.896.415 1.481.561 4.978 1.242 9.299 1.529 13.201.877 2.306-.385 5.775-1.742 6.189-3.078.046-.147.185-.594-.665-1.411-2.835-2.728-10.859-3.993-17.526-2.768-2.675.492-5.708 1.157-7.852 2.821-1.104.856-1.652 1.834-1.632 2.908.025 1.314.912 2.693 2.434 3.783 3.75 2.686 8.692 3.126 13.434 3.347 4.185.194 8.854.004 11.729-2.869.391-.391 1.023-.391 1.414 0 .391.39.391 1.023 0 1.414-2.877 2.881-7.004 3.511-10.993 3.511z" fill="#c7c7c7"/><path d="m49.698 25.83c-2.611 0-5.075-.273-7.359-.819-.965-.23-1.964-.545-2.741-1.277-1.096-1.032-1.279-2.623-.467-4.053.271-.48.882-.648 1.363-.375.48.273.648.883.375 1.364-.168.297-.496 1.048.1 1.609.412.388 1.031.596 1.835.788 3.127.746 6.633.947 10.423.597 1.222-.113 5.249-.711 5.79-3.667.1-.543.624-.898 1.163-.804.544.1.903.621.804 1.164-.535 2.93-3.367 4.911-7.573 5.299-1.267.115-2.506.174-3.713.174z" fill="#c7c7c7"/><path d="m47 43.174c-.19 0-.383-.054-.554-.167-.459-.305-.584-.926-.279-1.386.019-.028 1.833-2.795 1.833-5.446 0-2.563 2.852-3.402 5.367-4.142 1.428-.42 3.045-.896 3.505-1.548.127-.18.147-.392.105-.459-.015-.023-.169-.254-1.021-.218-1.059.012-2.107.14-3.218.276-.831.102-1.69.208-2.556.259-4.36.263-6.938-.809-7.251-3.016-.077-.547.303-1.053.85-1.131.545-.078 1.053.303 1.131.85.133.939 2.248 1.476 5.151 1.301.803-.048 1.594-.145 2.432-.248 1.116-.137 2.27-.278 3.439-.291.487-.007 1.999-.022 2.738 1.156.483.772.417 1.847-.166 2.673-.861 1.221-2.666 1.752-4.575 2.314-1.842.543-3.931 1.157-3.931 2.224 0 3.265-2.079 6.422-2.168 6.555-.192.289-.51.444-.832.444z" fill="#c7c7c7"/><path d="m44 47c-.256 0-.512-.098-.707-.293-.391-.391-.391-1.023 0-1.414l2-2c.391-.391 1.023-.391 1.414 0s.391 1.023 0 1.414l-2 2c-.195.195-.451.293-.707.293z" fill="#c7c7c7"/></svg>