<svg xmlns="http://www.w3.org/2000/svg" xmlns:xlink="http://www.w3.org/1999/xlink" width="75" height="65" viewBox="0 0 75 65">
  <defs>
    <clipPath id="clip-path">
      <rect id="logo" width="75" height="75" transform="translate(140 14)" fill="#959595"/>
    </clipPath>
    <clipPath id="clip-icon_navegador">
      <rect width="75" height="65"/>
    </clipPath>
  </defs>
  <g id="icon_navegador" clip-path="url(#clip-icon_navegador)">
    <g id="Grupo_de_máscara_7" data-name="Grupo de máscara 7" transform="translate(-140 -19)" clip-path="url(#clip-path)">
      <g id="love" transform="translate(140 14)">
        <g id="Grupo_11" data-name="Grupo 11">
          <path id="Caminho_43" data-name="Caminho 43" d="M73.662,18.308l-9.9,2.55-.027.008a.494.494,0,0,0-.377.41l-.441,3.081a2.761,2.761,0,0,1-1.665,2.153l-1.954.821a.494.494,0,0,0,.229.948l.741-.06a2.757,2.757,0,0,1,2.86,3.57l-.011.035a2.776,2.776,0,0,1-1.209,1.542l-4.956,2.988a2.738,2.738,0,0,1-1.423.4H50.765A2.765,2.765,0,0,1,48.77,35.9l-1.194-1.25a.494.494,0,0,0-.358-.152H44.552a2.777,2.777,0,0,1-1.95-.809l-4-4a2.734,2.734,0,0,1-.809-1.95v-2.1a.493.493,0,0,0-.548-.491l-1.257.139a.493.493,0,0,0-.414.329l-1.251,3.622a2.738,2.738,0,0,1-1.994,1.788l-4.8,1.091a2.694,2.694,0,0,1-.942.048l-2.908-.347a.5.5,0,0,0-.537.361l-.371,1.357a.5.5,0,0,0,.047.373l2.71,4.784a2.756,2.756,0,0,1-.5,3.359l-.317.3a.5.5,0,0,0-.08.617l.653,1.046a.492.492,0,0,0,.42.232h2.333a2.776,2.776,0,0,1,2.182,1.071L32.6,48.4a.5.5,0,0,0,.189.148l5.731,2.531a.477.477,0,0,0,.2.042h4.124a2.743,2.743,0,0,1,2.727,2.345l.2,1.316a2.749,2.749,0,0,1-1.093,2.632l-1.72,1.268a.493.493,0,0,0-.172.566l1.766,4.963-3.936,3.936a4.4,4.4,0,0,1-6.229,0l-23.5-23.5,1.959-8.2a.378.378,0,0,0-.167-.4l-3.5-2.212A2.624,2.624,0,0,1,7.944,31.6v-.853a2.644,2.644,0,0,1,2.641-2.641h1.07a.377.377,0,0,0,.332-.2l.563-1.043a.379.379,0,0,0-.119-.49L9.99,24.712a2.649,2.649,0,0,1-1.068-2.839l1.361-5.291a2.631,2.631,0,0,1,1.138-1.568l2.173-1.387a2.631,2.631,0,0,1,2.22-.29l2.291.727a.377.377,0,0,0,.4-.112l.663-.762a.373.373,0,0,0,.063-.392L16.345,5.893a19.908,19.908,0,0,1,17.686,5.513l2.935,2.937a.755.755,0,0,0,1.067,0l2.937-2.937a19.943,19.943,0,0,1,32.692,6.9Z" fill="#31a7fb"/>
          <path id="Caminho_44" data-name="Caminho 44" d="M20.019,13.935l-.662.762a1.509,1.509,0,0,1-1.6.448l-2.29-.728a1.509,1.509,0,0,0-1.268.166L12.03,15.969a1.51,1.51,0,0,0-.65.9l-1.361,5.291a1.509,1.509,0,0,0,.61,1.622l2.44,1.668a1.509,1.509,0,0,1,.477,1.962l-.562,1.042a1.509,1.509,0,0,1-1.328.793h-1.07a1.509,1.509,0,0,0-1.509,1.509V31.6a1.51,1.51,0,0,0,.7,1.276l3.5,2.212a1.509,1.509,0,0,1,.664,1.619l-2.08,8.913L5.839,39.6A19.934,19.934,0,0,1,17.519,5.713l2.756,6.654a1.509,1.509,0,0,1-.255,1.567Z" fill="#23f1a8"/>
          <g id="Grupo_6" data-name="Grupo 6">
            <path id="Caminho_45" data-name="Caminho 45" d="M34.458,66.87,45.777,55.55a2.742,2.742,0,0,1-1.1,1.861l-1.72,1.268a.493.493,0,0,0-.172.566l1.766,4.963-3.936,3.936a4.4,4.4,0,0,1-6.229,0l-.675-.675a4.3,4.3,0,0,0,.747-.6Z" fill="#1c96f9"/>
            <path id="Caminho_46" data-name="Caminho 46" d="M63,10.13A19.863,19.863,0,0,0,56,5.588a19.953,19.953,0,0,1,17.667,12.72L68.32,19.684A19.822,19.822,0,0,0,63,10.13Z" fill="#1c96f9"/>
            <path id="Caminho_47" data-name="Caminho 47" d="M72.488,35.2a19.956,19.956,0,0,1-3.326,4.4l-4.3,4.3-1.953-4.043a2.711,2.711,0,0,1-.34-1.1L63,38.322a19.883,19.883,0,0,0,2.95-3.755,2.782,2.782,0,0,1,.605-.03c.02,0,.039,0,.057.006Z" fill="#1c96f9"/>
          </g>
          <path id="Caminho_48" data-name="Caminho 48" d="M71.839,36.278l-5.347-.61a1.626,1.626,0,0,0-1.316.545L64.1,37.434a1.625,1.625,0,0,0-.187,1.9L65.7,43.061,43.651,65.107l-1.932-5.482a1.628,1.628,0,0,1,.566-1.858L44.007,56.5a1.628,1.628,0,0,0,.644-1.551l-.2-1.314a1.628,1.628,0,0,0-1.609-1.384H38.721a1.61,1.61,0,0,1-.656-.139l-5.728-2.529a1.634,1.634,0,0,1-.629-.492L29.33,46.014a1.627,1.627,0,0,0-1.287-.632H25.71a1.624,1.624,0,0,1-1.379-.765l-.652-1.044a1.623,1.623,0,0,1,.26-2.04l.315-.3a1.628,1.628,0,0,0,.294-1.981l-2.71-4.784a1.627,1.627,0,0,1-.154-1.23l.371-1.357A1.627,1.627,0,0,1,23.818,30.7l2.911.349a1.585,1.585,0,0,0,.554-.029l4.8-1.091a1.626,1.626,0,0,0,1.176-1.055l1.251-3.622a1.624,1.624,0,0,1,1.36-1.085l1.257-.139a1.626,1.626,0,0,1,1.8,1.616v2.1a1.627,1.627,0,0,0,.477,1.15l4,4a1.626,1.626,0,0,0,1.148.477h2.666a1.622,1.622,0,0,1,1.176.5l1.2,1.251a1.622,1.622,0,0,0,1.176.5h4.764a1.614,1.614,0,0,0,.839-.234L61.322,32.4a1.634,1.634,0,0,0,.712-.907l.012-.039a1.626,1.626,0,0,0-1.687-2.105l-.738.06a1.625,1.625,0,0,1-.762-3.119l1.956-.821A1.621,1.621,0,0,0,61.8,24.2l.441-3.081a1.626,1.626,0,0,1,1.242-1.354l9.745-2.5a19.96,19.96,0,0,1-1.386,19.012Z" fill="#23f1a8"/>
          <path id="Caminho_49" data-name="Caminho 49" d="M71.839,36.278l-5.347-.61a1.626,1.626,0,0,0-1.316.545L64.1,37.434a1.625,1.625,0,0,0-.187,1.9L65.7,43.061,43.651,65.107l-1.932-5.482,0-.012L63,38.323a19.93,19.93,0,0,0,5.03-19.728l5.19-1.329A19.959,19.959,0,0,1,71.839,36.278Z" fill="#27e19d"/>
          <g id="Grupo_7" data-name="Grupo 7">
            <path id="Caminho_50" data-name="Caminho 50" d="M35.971,40.495h-2.88a1.132,1.132,0,0,1,0-2.263h2.88a1.132,1.132,0,0,1,0,2.263Z" fill="#1ec186"/>
          </g>
          <g id="Grupo_8" data-name="Grupo 8">
            <path id="Caminho_51" data-name="Caminho 51" d="M49.864,47.461H48.313a1.132,1.132,0,0,1,0-2.263h1.551a1.132,1.132,0,0,1,0,2.263Z" fill="#9ff7d3"/>
          </g>
          <g id="Grupo_9" data-name="Grupo 9">
            <path id="Caminho_52" data-name="Caminho 52" d="M69.924,26.757H67.763a1.132,1.132,0,0,1,0-2.263h2.161a1.132,1.132,0,1,1,0,2.263Z" fill="#27e19d"/>
          </g>
          <g id="Grupo_10" data-name="Grupo 10">
            <path id="Caminho_53" data-name="Caminho 53" d="M71.056,25.625a1.132,1.132,0,0,1-1.132,1.132H68.682a19.619,19.619,0,0,0,.158-2.264h1.084A1.132,1.132,0,0,1,71.056,25.625Z" fill="#26d192"/>
          </g>
        </g>
        <g id="Grupo_13" data-name="Grupo 13">
          <g id="Grupo_12" data-name="Grupo 12">
            <path id="Caminho_54" data-name="Caminho 54" d="M58.78,17.2a3.56,3.56,0,0,1-2.067-.62,1.507,1.507,0,0,0-1.765,0,3.756,3.756,0,0,1-4.134,0,1.362,1.362,0,0,0-.882-.285,1.132,1.132,0,1,1,0-2.263A3.561,3.561,0,0,1,52,14.65a1.506,1.506,0,0,0,1.765,0,3.756,3.756,0,0,1,4.134,0,1.363,1.363,0,0,0,.883.285,1.132,1.132,0,1,1,0,2.263Z" fill="#1c96f9"/>
          </g>
        </g>
        <g id="Grupo_15" data-name="Grupo 15">
          <g id="Grupo_14" data-name="Grupo 14">
            <path id="Caminho_55" data-name="Caminho 55" d="M53.513,24.457a3.56,3.56,0,0,1-2.067-.62,1.507,1.507,0,0,0-1.765,0,3.755,3.755,0,0,1-4.134,0,1.362,1.362,0,0,0-.882-.285,1.132,1.132,0,0,1,0-2.263,3.559,3.559,0,0,1,2.067.62,1.507,1.507,0,0,0,1.765,0,3.756,3.756,0,0,1,4.134,0,1.363,1.363,0,0,0,.883.285,1.132,1.132,0,1,1,0,2.263Z" fill="#8dcafc"/>
          </g>
        </g>
        <g id="Grupo_17" data-name="Grupo 17">
          <g id="Grupo_16" data-name="Grupo 16">
            <path id="Caminho_56" data-name="Caminho 56" d="M28.652,23.66a3.561,3.561,0,0,1-2.067-.62,1.507,1.507,0,0,0-1.765,0,3.755,3.755,0,0,1-4.134,0,1.362,1.362,0,0,0-.882-.285,1.132,1.132,0,1,1,0-2.263,3.559,3.559,0,0,1,2.067.62,1.507,1.507,0,0,0,1.765,0,3.756,3.756,0,0,1,4.134,0,1.363,1.363,0,0,0,.883.285,1.132,1.132,0,1,1,0,2.263Z" fill="#1c96f9"/>
          </g>
        </g>
      </g>
    </g>
    <text id="SAVE_" data-name="SAVE " transform="translate(38 24)" fill="#fff" font-size="15" font-family="Quicksand-Bold, Quicksand" font-weight="700"><tspan x="-21.157" y="0">SAVE </tspan></text>
    <text id="THE_EARTH" data-name="THE 
EARTH" transform="translate(38 38)" fill="#fff" font-size="9" font-family="Quicksand-Bold, Quicksand" font-weight="700"><tspan x="-10.125" y="0">THE </tspan><tspan x="-14.404" y="11">EARTH</tspan></text>
  </g>
</svg>
