<svg xmlns="http://www.w3.org/2000/svg" xmlns:xlink="http://www.w3.org/1999/xlink" width="30" height="29" viewBox="0 0 30 29">
  <defs>
    <clipPath id="clip-path">
      <rect id="Next_-_Superior" data-name="Next - Superior" width="30" height="30" transform="translate(1737 844)" fill="#f2f2f2" stroke="#f2f2f2" stroke-width="1"/>
    </clipPath>
    <clipPath id="clip-SETA_CIMA_WHITE">
      <rect width="30" height="29"/>
    </clipPath>
  </defs>
  <g id="SETA_CIMA_WHITE" clip-path="url(#clip-SETA_CIMA_WHITE)">
    <g id="SETAS" transform="translate(-1737 -853.5)">
      <g id="Grupo_de_máscara_1" data-name="Grupo de máscara 1" transform="translate(893 2619) rotate(-90)" clip-path="url(#clip-path)">
        <g id="NEXT_1" data-name="NEXT 1" transform="translate(1737 844)">
          <path id="Caminho_3" data-name="Caminho 3" d="M8.294.191a.652.652,0,0,0-.922.922L21.254,15,7.37,28.879a.652.652,0,1,0,.906.938l.016-.016L22.636,15.457a.652.652,0,0,0,0-.922Z" fill="#f2f2f2" stroke="#f2f2f2" stroke-width="0.061"/>
          <path id="Caminho_4" data-name="Caminho 4" d="M7.832,29.993a.652.652,0,0,1-.462-1.114L21.254,15,7.37,1.114A.653.653,0,0,1,8.294.191L22.638,14.535a.652.652,0,0,1,0,.922L8.294,29.8A.652.652,0,0,1,7.832,29.993Z" fill="#f2f2f2" stroke="#f2f2f2" stroke-width="0.061"/>
        </g>
      </g>
    </g>
  </g>
</svg>
