<svg xmlns="http://www.w3.org/2000/svg" xmlns:xlink="http://www.w3.org/1999/xlink" width="36" height="36" viewBox="0 0 36 36">
  <defs>
    <clipPath id="clip-path">
      <rect id="Ret칙ngulo_6" data-name="Ret칙ngulo 6" width="36" height="36" transform="translate(1734 640)" fill="#dc4c4c"/>
    </clipPath>
    <clipPath id="clip-setadupla">
      <rect width="36" height="36"/>
    </clipPath>
  </defs>
  <g id="setadupla" clip-path="url(#clip-setadupla)">
    <g id="Grupo_de_m치scara_3" data-name="Grupo de m치scara 3" transform="translate(-1734 -640)" clip-path="url(#clip-path)">
      <g id="NEXT_2" data-name="NEXT 2" transform="translate(1734 640)">
        <g id="Grupo_1" data-name="Grupo 1">
          <path id="Caminho_7" data-name="Caminho 7" d="M16.995.229a.782.782,0,0,0-1.106,1.106L32.547,18,15.887,34.655a.782.782,0,0,0,1.087,1.126l.019-.019L34.206,18.548a.782.782,0,0,0,0-1.106Z" fill="#dc4c4c"/>
          <path id="Caminho_8" data-name="Caminho 8" d="M20.124,17.442,2.912.229A.782.782,0,0,0,1.805,1.336L18.464,18,1.8,34.655A.782.782,0,0,0,2.891,35.78l.019-.019L20.123,18.548A.782.782,0,0,0,20.124,17.442Z" fill="#dc4c4c"/>
        </g>
        <path id="Caminho_9" data-name="Caminho 9" d="M16.441,35.991a.782.782,0,0,1-.554-1.336L32.547,18,15.887,1.337A.782.782,0,0,1,16.993.231L34.206,17.444a.782.782,0,0,1,0,1.106L16.993,35.763A.782.782,0,0,1,16.441,35.991Z" fill="#dc4c4c"/>
        <path id="Caminho_10" data-name="Caminho 10" d="M2.358,35.991A.782.782,0,0,1,1.8,34.655L18.464,18,1.8,1.337A.783.783,0,0,1,2.912.229L20.124,17.442a.782.782,0,0,1,0,1.106L2.912,35.761A.782.782,0,0,1,2.358,35.991Z" fill="#dc4c4c"/>
      </g>
    </g>
  </g>
</svg>
